# xmcd
# 
# Track frame offsets:
#     150
#     24685
#     45885
#     68892
#     94922
#     119462
#     139485
#     160932
#     181375
# 
# Disc length: 2785
# 
# Revision: 1
# Processed by: cddbd v1.5.2PL0 Copyright (c) Steve Scherf et al.
# Submitted via: BonkEnc v1.0.8
# 
DISCID=7b0adf09
DTITLE=鈴木良雄 - [East Bounce] Coming Back To America
DYEAR=1994
DGENRE=Fusion
TTITLE0=Coming Back To America
TTITLE1=Dreams Of Water
TTITLE2=A Storm Of Love
TTITLE3=Midnight Flight
TTITLE4=Never Such Love
TTITLE5=You and I
TTITLE6=That's Why I Like You
TTITLE7=My Dear Friends
TTITLE8=Shinjuku
EXTD=YEAR: 1995
EXTT0=
EXTT1=
EXTT2=
EXTT3=
EXTT4=
EXTT5=
EXTT6=
EXTT7=
EXTT8=
PLAYORDER=
